<svg width="4027" height="1870" viewBox="0 0 4027 1870" fill="none" xmlns="http://www.w3.org/2000/svg">
<path d="M0 0H4027V1870H0V0Z" fill="white"/>
<path d="M644.216 1097.09C640.381 1064.7 624.827 1039.56 597.554 1021.66C570.281 1003.77 536.83 994.818 497.199 994.818C468.222 994.818 442.866 999.506 421.134 1008.88C399.614 1018.26 382.781 1031.15 370.636 1047.55C358.705 1063.96 352.739 1082.6 352.739 1103.48C352.739 1120.95 356.893 1135.98 365.203 1148.55C373.726 1160.9 384.592 1171.24 397.803 1179.55C411.013 1187.64 424.862 1194.36 439.351 1199.68C453.839 1204.8 467.156 1208.95 479.301 1212.15L545.778 1230.05C562.824 1234.52 581.787 1240.7 602.668 1248.58C623.761 1256.47 643.896 1267.23 663.072 1280.86C682.462 1294.29 698.442 1311.54 711.013 1332.64C723.584 1353.73 729.869 1379.62 729.869 1410.3C729.869 1445.67 720.601 1477.63 702.064 1506.18C683.74 1534.73 656.893 1557.42 621.524 1574.26C586.368 1591.09 543.648 1599.51 493.364 1599.51C446.489 1599.51 405.899 1591.94 371.595 1576.81C337.504 1561.69 310.658 1540.59 291.055 1513.53C271.666 1486.47 260.693 1455.05 258.136 1419.25H339.955C342.085 1443.97 350.395 1464.42 364.884 1480.61C379.585 1496.59 398.122 1508.53 420.494 1516.41C443.08 1524.08 467.369 1527.91 493.364 1527.91C523.619 1527.91 550.786 1523.01 574.862 1513.21C598.939 1503.2 618.009 1489.35 632.071 1471.66C646.134 1453.77 653.165 1432.89 653.165 1409.02C653.165 1387.29 647.092 1369.61 634.947 1355.97C622.803 1342.33 606.822 1331.25 587.007 1322.73C567.192 1314.21 545.778 1306.75 522.767 1300.36L442.227 1277.35C391.091 1262.64 350.608 1241.66 320.778 1214.38C290.949 1187.11 276.034 1151.42 276.034 1107.32C276.034 1070.67 285.942 1038.71 305.757 1011.44C325.786 983.952 352.632 962.645 386.297 947.517C420.175 932.176 457.994 924.506 499.756 924.506C541.943 924.506 579.443 932.07 612.256 947.197C645.068 962.112 671.063 982.567 690.239 1008.56C709.628 1034.56 719.855 1064.07 720.92 1097.09H644.216Z" fill="black"/>
<path d="M1280.73 933.455H1359.99V1366.84C1359.99 1411.58 1349.45 1451.53 1328.35 1486.69C1307.47 1521.63 1277.96 1549.22 1239.82 1569.46C1201.68 1589.49 1156.94 1599.51 1105.59 1599.51C1054.24 1599.51 1009.5 1589.49 971.358 1569.46C933.218 1549.22 903.602 1521.63 882.508 1486.69C861.627 1451.53 851.187 1411.58 851.187 1366.84V933.455H930.449V1360.44C930.449 1392.4 937.48 1420.85 951.542 1445.78C965.605 1470.49 985.633 1489.99 1011.63 1504.26C1037.83 1518.33 1069.16 1525.36 1105.59 1525.36C1142.03 1525.36 1173.35 1518.33 1199.55 1504.26C1225.76 1489.99 1245.79 1470.49 1259.64 1445.78C1273.7 1420.85 1280.73 1392.4 1280.73 1360.44V933.455Z" fill="black"/>
<path d="M1509.28 933.455H1603.88L1826.32 1476.78H1833.99L2056.44 933.455H2151.04V1588H2076.89V1090.7H2070.5L1865.95 1588H1794.36L1589.82 1090.7H1583.42V1588H1509.28V933.455Z" fill="black"/>
<path d="M2300.96 933.455H2395.56L2618.01 1476.78H2625.68L2848.12 933.455H2942.72V1588H2868.57V1090.7H2862.18L2657.64 1588H2586.05L2381.5 1090.7H2375.11V1588H2300.96V933.455Z" fill="black"/>
<path d="M3171.91 933.455V1588H3092.64V933.455H3171.91Z" fill="black"/>
<path d="M3286.03 1003.77V933.455H3776.94V1003.77H3571.12V1588H3491.86V1003.77H3286.03Z" fill="black"/>
<path d="M251 236H3776V873H251V236Z" fill="black"/>
<path d="M250.244 874V401.273H415.514C448.445 401.273 475.605 406.966 496.995 418.354C518.385 429.587 534.312 444.745 544.776 463.826C555.24 482.754 560.472 503.758 560.472 526.841C560.472 547.153 556.855 563.927 549.623 577.161C542.544 590.394 533.157 600.858 521.462 608.553C509.921 616.247 497.38 621.94 483.838 625.634V630.25C498.303 631.173 512.845 636.251 527.464 645.484C542.083 654.717 554.316 667.951 564.165 685.186C574.013 702.421 578.938 723.503 578.938 748.432C578.938 772.13 573.552 793.442 562.78 812.37C552.008 831.298 535.004 846.301 511.768 857.381C488.531 868.46 458.294 874 421.054 874H250.244ZM307.489 823.219H421.054C458.447 823.219 484.992 815.986 500.688 801.521C516.538 786.902 524.463 769.206 524.463 748.432C524.463 732.428 520.385 717.655 512.229 704.114C504.074 690.418 492.456 679.492 477.375 671.337C462.295 663.027 444.444 658.872 423.824 658.872H307.489V823.219ZM307.489 609.014H413.668C430.902 609.014 446.445 605.629 460.294 598.858C474.297 592.087 485.377 582.546 493.533 570.236C501.842 557.925 505.997 543.46 505.997 526.841C505.997 506.067 498.765 488.447 484.3 473.982C469.835 459.363 446.906 452.054 415.514 452.054H307.489V609.014Z" fill="white"/>
<path d="M666.498 874V401.273H723.743V823.219H943.487V874H666.498Z" fill="white"/>
<path d="M1074.85 874H1014.83L1188.41 401.273H1247.5L1421.08 874H1361.07L1219.8 476.06H1216.11L1074.85 874ZM1097.01 689.341H1338.91V740.122H1097.01V689.341Z" fill="white"/>
<path d="M1846.4 549H1789.15C1785.77 532.535 1779.84 518.07 1771.38 505.605C1763.07 493.141 1752.91 482.677 1740.91 474.213C1729.06 465.596 1715.9 459.133 1701.44 454.824C1686.97 450.515 1671.89 448.361 1656.2 448.361C1627.57 448.361 1601.65 455.593 1578.41 470.058C1555.33 484.523 1536.94 505.836 1523.24 533.996C1509.7 562.157 1502.93 596.704 1502.93 637.636C1502.93 678.569 1509.7 713.116 1523.24 741.276C1536.94 769.437 1555.33 790.75 1578.41 805.214C1601.65 819.679 1627.57 826.912 1656.2 826.912C1671.89 826.912 1686.97 824.758 1701.44 820.449C1715.9 816.14 1729.06 809.754 1740.91 801.29C1752.91 792.673 1763.07 782.132 1771.38 769.668C1779.84 757.049 1785.77 742.584 1789.15 726.273H1846.4C1842.09 750.432 1834.24 772.053 1822.85 791.134C1811.46 810.216 1797.31 826.45 1780.38 839.838C1763.45 853.072 1744.45 863.151 1723.37 870.076C1702.44 877.001 1680.05 880.463 1656.2 880.463C1615.88 880.463 1580.03 870.615 1548.63 850.918C1517.24 831.221 1492.54 803.214 1474.54 766.898C1456.53 730.581 1447.53 687.494 1447.53 637.636C1447.53 587.778 1456.53 544.691 1474.54 508.375C1492.54 472.059 1517.24 444.052 1548.63 424.355C1580.03 404.658 1615.88 394.81 1656.2 394.81C1680.05 394.81 1702.44 398.272 1723.37 405.197C1744.45 412.121 1763.45 422.278 1780.38 435.665C1797.31 448.899 1811.46 465.057 1822.85 484.138C1834.24 503.066 1842.09 524.687 1846.4 549Z" fill="white"/>
<path d="M1932.4 874V401.273H1989.64V635.79H1995.18L2207.54 401.273H2282.33L2083.82 614.554L2282.33 874H2213.08L2048.73 654.256L1989.64 720.733V874H1932.4Z" fill="white"/>
<path d="M2608.24 874V401.273H2773.51C2806.45 401.273 2833.61 406.966 2855 418.354C2876.38 429.587 2892.31 444.745 2902.78 463.826C2913.24 482.754 2918.47 503.758 2918.47 526.841C2918.47 547.153 2914.86 563.927 2907.62 577.161C2900.54 590.394 2891.16 600.858 2879.46 608.553C2867.92 616.247 2855.38 621.94 2841.84 625.634V630.25C2856.3 631.173 2870.85 636.251 2885.46 645.484C2900.08 654.717 2912.32 667.951 2922.16 685.186C2932.01 702.421 2936.94 723.503 2936.94 748.432C2936.94 772.13 2931.55 793.442 2920.78 812.37C2910.01 831.298 2893 846.301 2869.77 857.381C2846.53 868.46 2816.29 874 2779.05 874H2608.24ZM2665.49 823.219H2779.05C2816.45 823.219 2842.99 815.986 2858.69 801.521C2874.54 786.902 2882.46 769.206 2882.46 748.432C2882.46 732.428 2878.39 717.655 2870.23 704.114C2862.07 690.418 2850.46 679.492 2835.38 671.337C2820.29 663.027 2802.44 658.872 2781.82 658.872H2665.49V823.219ZM2665.49 609.014H2771.67C2788.9 609.014 2804.44 605.629 2818.29 598.858C2832.3 592.087 2843.38 582.546 2851.53 570.236C2859.84 557.925 2864 543.46 2864 526.841C2864 506.067 2856.76 488.447 2842.3 473.982C2827.83 459.363 2804.91 452.054 2773.51 452.054H2665.49V609.014Z" fill="white"/>
<path d="M3043.89 874H2983.87L3157.45 401.273H3216.54L3390.12 874H3330.11L3188.84 476.06H3185.15L3043.89 874ZM3066.05 689.341H3307.95V740.122H3066.05V689.341Z" fill="white"/>
<path d="M3457.26 874V401.273H3616.99C3653.92 401.273 3684.23 407.582 3707.93 420.2C3731.63 432.665 3749.17 449.823 3760.56 471.674C3771.95 493.525 3777.64 518.377 3777.64 546.23C3777.64 574.083 3771.95 598.781 3760.56 620.325C3749.17 641.868 3731.71 658.795 3708.16 671.106C3684.62 683.263 3654.53 689.341 3617.91 689.341H3488.65V637.636H3616.06C3641.3 637.636 3661.61 633.943 3677 626.557C3692.54 619.17 3703.78 608.706 3710.7 595.165C3717.78 581.469 3721.32 565.158 3721.32 546.23C3721.32 527.303 3717.78 510.76 3710.7 496.603C3703.62 482.446 3692.31 471.52 3676.77 463.826C3661.23 455.978 3640.68 452.054 3615.14 452.054H3514.5V874H3457.26ZM3679.77 661.642L3796.11 874H3729.63L3615.14 661.642H3679.77Z" fill="white"/>
</svg>
