<svg width="1112" height="76" viewBox="0 0 1112 76" fill="none" xmlns="http://www.w3.org/2000/svg">
<path d="M0.409058 17.3523V5.18182H57.75V17.3523H36.375V75H21.7841V17.3523H0.409058Z" fill="#190000"/>
<path d="M66.2331 75V5.18182H80.9945V33.9886H110.96V5.18182H125.688V75H110.96V46.1591H80.9945V75H66.2331Z" fill="#190000"/>
<path d="M136.898 75V5.18182H183.944V17.3523H151.66V33.9886H181.523V46.1591H151.66V62.8295H184.08V75H136.898Z" fill="#190000"/>
<path d="M764.063 25.2614C763.79 22.5114 762.62 20.375 760.552 18.8523C758.484 17.3295 755.677 16.5682 752.131 16.5682C749.722 16.5682 747.688 16.9091 746.029 17.5909C744.37 18.25 743.097 19.1705 742.211 20.3523C741.347 21.5341 740.915 22.875 740.915 24.375C740.87 25.625 741.131 26.7159 741.7 27.6477C742.29 28.5795 743.097 29.3864 744.12 30.0682C745.143 30.7273 746.325 31.3068 747.665 31.8068C749.006 32.2841 750.438 32.6932 751.961 33.0341L758.234 34.5341C761.279 35.2159 764.074 36.125 766.62 37.2614C769.165 38.3977 771.37 39.7955 773.234 41.4545C775.097 43.1136 776.54 45.0682 777.563 47.3182C778.609 49.5682 779.143 52.1477 779.165 55.0568C779.143 59.3295 778.052 63.0341 775.893 66.1705C773.756 69.2841 770.665 71.7045 766.62 73.4318C762.597 75.1364 757.745 75.9886 752.063 75.9886C746.427 75.9886 741.518 75.125 737.336 73.3977C733.177 71.6705 729.927 69.1136 727.586 65.7273C725.268 62.3182 724.052 58.1023 723.938 53.0795H738.222C738.381 55.4205 739.052 57.375 740.234 58.9432C741.438 60.4886 743.04 61.6591 745.04 62.4545C747.063 63.2273 749.347 63.6136 751.893 63.6136C754.393 63.6136 756.563 63.25 758.404 62.5227C760.268 61.7955 761.711 60.7841 762.734 59.4886C763.756 58.1932 764.268 56.7045 764.268 55.0227C764.268 53.4545 763.802 52.1364 762.87 51.0682C761.961 50 760.62 49.0909 758.847 48.3409C757.097 47.5909 754.95 46.9091 752.404 46.2955L744.802 44.3864C738.915 42.9545 734.268 40.7159 730.859 37.6705C727.449 34.625 725.756 30.5227 725.779 25.3636C725.756 21.1364 726.881 17.4432 729.154 14.2841C731.45 11.125 734.597 8.65909 738.597 6.88636C742.597 5.11363 747.143 4.22727 752.234 4.22727C757.415 4.22727 761.938 5.11363 765.802 6.88636C769.688 8.65909 772.711 11.125 774.87 14.2841C777.029 17.4432 778.143 21.1023 778.211 25.2614H764.063Z" fill="#190000"/>
<path d="M831.259 5.18182H846.021V50.5227C846.021 55.6136 844.805 60.0682 842.373 63.8864C839.964 67.7045 836.589 70.6818 832.248 72.8182C827.907 74.9318 822.85 75.9886 817.078 75.9886C811.282 75.9886 806.214 74.9318 801.873 72.8182C797.532 70.6818 794.157 67.7045 791.748 63.8864C789.339 60.0682 788.134 55.6136 788.134 50.5227V5.18182H802.896V49.2614C802.896 51.9205 803.475 54.2841 804.634 56.3523C805.816 58.4205 807.475 60.0455 809.612 61.2273C811.748 62.4091 814.237 63 817.078 63C819.941 63 822.43 62.4091 824.543 61.2273C826.68 60.0455 828.328 58.4205 829.487 56.3523C830.668 54.2841 831.259 51.9205 831.259 49.2614V5.18182Z" fill="#190000"/>
<path d="M857.206 5.18182H875.41L894.637 52.0909H895.456L914.683 5.18182H932.887V75H918.569V29.5568H917.99L899.922 74.6591H890.172L872.103 29.3864H871.524V75H857.206V5.18182Z" fill="#190000"/>
<path d="M944.089 5.18182H962.294L981.521 52.0909H982.339L1001.57 5.18182H1019.77V75H1005.45V29.5568H1004.87L986.805 74.6591H977.055L958.987 29.3864H958.408V75H944.089V5.18182Z" fill="#190000"/>
<path d="M1045.73 5.18182V75H1030.97V5.18182H1045.73Z" fill="#190000"/>
<path d="M1054.26 17.3523V5.18182H1111.6V17.3523H1090.23V75H1075.64V17.3523H1054.26Z" fill="#190000"/>
<path d="M209 0H711V76H209V0Z" fill="#190000"/>
</svg>
